# xmcd
#
# Track frame offsets:
#	150
#	17693
#	33042
#	51209
#	66357
#	85507
#	99064
#	110369
#	124192
#	139635
#	156038
#	169011
#	184386
#	203826
#
# Disc length: 2947 seconds
#
# Revision: 1
# Processed by: cddbd v1.5PL3 Copyright (c) Steve Scherf et al.
# Submitted via: EasyCDDAExtractor 5.0.6
#
DISCID=ac0b810e
DTITLE=Various Artist - Um ser de Luz-Saudação a Clara Nunes-CD2
DYEAR=2004
DGENRE=Samba
TTITLE0=Tereza Cristina - Você Passa. Eu Acho Graça
TTITLE1=Zeca Baleiro - Tristeza. Pé no chão
TTITLE2=Monica Salmaso - Alvorecer
TTITLE3=Monarco e Velha Guarda da Portela - Peixe com coco
TTITLE4=Mariana Bernades - Minha Missão
TTITLE5=Seu Jorge - Na Linha do Mar
TTITLE6=Helen Galaça - Basta um dia
TTITLE7=Wilson Moreira - O Mar Serenou
TTITLE8=Janaina Pereira - Viola de Penedo
TTITLE9=Renato Braz - Nação
TTITLE10=Dona Ivone Lara - Juizo Final
TTITLE11=Pedro Miranda - Meu Sapato Já Furou
TTITLE12=Cristina Buarque - Portela na Avenida
TTITLE13=Tantinho da Mangueira - Mineira
EXTD=
EXTT0=
EXTT1=
EXTT2=
EXTT3=
EXTT4=
EXTT5=
EXTT6=
EXTT7=
EXTT8=
EXTT9=
EXTT10=
EXTT11=
EXTT12=
EXTT13=
PLAYORDER=
